<?xml version="1.0" encoding="UTF-8"?>
<svg xmlns="http://www.w3.org/2000/svg" xmlns:xlink="http://www.w3.org/1999/xlink" width="150px" height="150px" viewBox="0 0 256 256" version="1.1">
<defs>
<filter id="alpha" filterUnits="objectBoundingBox" x="0%" y="0%" width="100%" height="100%">
  <feColorMatrix type="matrix" in="SourceGraphic" values="0 0 0 0 1 0 0 0 0 1 0 0 0 0 1 0 0 0 1 0"/>
</filter>
<mask id="mask0">
  <g filter="url(#alpha)">
<rect x="0" y="0" width="256" height="256" style="fill:rgb(0%,0%,0%);fill-opacity:0.2;stroke:none;"/>
  </g>
</mask>
<clipPath id="clip1">
  <rect x="0" y="0" width="256" height="256"/>
</clipPath>
<g id="surface5" clip-path="url(#clip1)">
<path style=" stroke:none;fill-rule:nonzero;fill:rgb(100%,100%,100%);fill-opacity:1;" d="M 245.9375 78.175781 C 239.492188 62.933594 230.265625 49.242188 218.515625 37.488281 C 206.757812 25.738281 193.0625 16.507812 177.828125 10.0625 C 162.046875 3.386719 145.28125 0 128 0 C 126.214844 0 124.4375 0.0390625 122.667969 0.109375 C 138.0625 0.734375 153 4.074219 167.15625 10.0625 C 182.40625 16.507812 196.09375 25.738281 207.84375 37.488281 C 219.59375 49.242188 228.828125 62.933594 235.273438 78.175781 C 241.953125 93.957031 245.328125 110.722656 245.328125 128 C 245.328125 145.28125 241.953125 162.046875 235.273438 177.828125 C 228.828125 193.0625 219.59375 206.757812 207.84375 218.507812 C 196.09375 230.265625 182.40625 239.492188 167.15625 245.9375 C 153 251.921875 138.0625 255.265625 122.667969 255.890625 C 124.4375 255.960938 126.214844 256 128 256 C 145.28125 256 162.046875 252.609375 177.828125 245.9375 C 193.0625 239.492188 206.757812 230.265625 218.515625 218.507812 C 230.265625 206.757812 239.492188 193.0625 245.9375 177.828125 C 252.609375 162.046875 256 145.28125 256 128 C 256 110.722656 252.609375 93.957031 245.9375 78.175781 Z M 245.9375 78.175781 "/>
</g>
<mask id="mask1">
  <g filter="url(#alpha)">
<rect x="0" y="0" width="256" height="256" style="fill:rgb(0%,0%,0%);fill-opacity:0.101961;stroke:none;"/>
  </g>
</mask>
<clipPath id="clip2">
  <rect x="0" y="0" width="256" height="256"/>
</clipPath>
<g id="surface8" clip-path="url(#clip2)">
<path style=" stroke:none;fill-rule:nonzero;fill:rgb(0%,0%,0%);fill-opacity:1;" d="M 10.0625 177.828125 C 16.507812 193.0625 25.738281 206.757812 37.488281 218.507812 C 49.242188 230.265625 62.933594 239.492188 78.175781 245.9375 C 93.957031 252.609375 110.722656 256 128 256 C 129.785156 256 131.5625 255.960938 133.332031 255.890625 C 117.9375 255.265625 102.996094 251.921875 88.839844 245.9375 C 73.597656 239.492188 59.910156 230.265625 48.15625 218.507812 C 36.402344 206.757812 27.175781 193.0625 20.726562 177.828125 C 14.050781 162.046875 10.667969 145.28125 10.667969 128 C 10.667969 110.722656 14.050781 93.957031 20.726562 78.175781 C 27.175781 62.933594 36.402344 49.242188 48.15625 37.492188 C 59.910156 25.738281 73.597656 16.507812 88.839844 10.0625 C 102.996094 4.074219 117.9375 0.734375 133.332031 0.109375 C 131.5625 0.0390625 129.785156 0 128 0 C 110.722656 0 93.957031 3.386719 78.175781 10.0625 C 62.933594 16.507812 49.242188 25.738281 37.488281 37.492188 C 25.738281 49.242188 16.507812 62.933594 10.0625 78.175781 C 3.386719 93.957031 0 110.722656 0 128 C 0 145.28125 3.386719 162.046875 10.0625 177.828125 Z M 10.0625 177.828125 "/>
</g>
</defs>
<g id="surface1">
<path style=" stroke:none;fill-rule:nonzero;fill:rgb(92.941176%,33.333333%,39.215686%);fill-opacity:1;" d="M 245.9375 78.175781 C 239.492188 62.933594 230.265625 49.242188 218.515625 37.488281 C 206.757812 25.738281 193.0625 16.507812 177.828125 10.0625 C 162.046875 3.386719 145.28125 0 128 0 C 110.722656 0 93.957031 3.386719 78.175781 10.0625 C 62.933594 16.507812 49.242188 25.738281 37.488281 37.488281 C 25.738281 49.242188 16.507812 62.933594 10.0625 78.175781 C 3.386719 93.957031 0 110.722656 0 128 C 0 145.28125 3.386719 162.046875 10.0625 177.828125 C 16.507812 193.0625 25.738281 206.757812 37.488281 218.507812 C 49.242188 230.265625 62.933594 239.492188 78.175781 245.9375 C 93.957031 252.609375 110.722656 256 128 256 C 145.28125 256 162.046875 252.609375 177.828125 245.9375 C 193.0625 239.492188 206.757812 230.265625 218.515625 218.507812 C 230.265625 206.757812 239.492188 193.0625 245.9375 177.828125 C 252.609375 162.046875 256 145.28125 256 128 C 256 110.722656 252.609375 93.957031 245.9375 78.175781 Z M 245.9375 78.175781 "/>
<path style=" stroke:none;fill-rule:nonzero;fill:rgb(90.196078%,91.372549%,92.941176%);fill-opacity:1;" d="M 0.0507812 131.59375 C 0.488281 147.601562 3.847656 163.140625 10.0625 177.828125 C 16.507812 193.0625 25.738281 206.757812 37.488281 218.507812 C 49.242188 230.265625 62.933594 239.492188 78.175781 245.9375 C 93.957031 252.609375 110.722656 256 128 256 C 145.28125 256 162.046875 252.609375 177.828125 245.9375 C 193.0625 239.492188 206.757812 230.265625 218.515625 218.507812 C 230.265625 206.757812 239.492188 193.0625 245.9375 177.828125 C 252.15625 163.140625 255.515625 147.601562 255.953125 131.59375 Z M 0.0507812 131.59375 "/>
<path style=" stroke:none;fill-rule:nonzero;fill:rgb(26.27451%,29.019608%,32.941176%);fill-opacity:1;" d="M 255.390625 140.609375 C 255.796875 136.4375 256 132.234375 256 128 C 256 123.242188 255.742188 118.523438 255.234375 113.855469 C 248.875 114.835938 239.742188 116.113281 228.234375 117.382812 C 206.390625 119.792969 171.28125 122.667969 128 122.667969 C 84.722656 122.667969 49.609375 119.792969 27.769531 117.382812 C 16.257812 116.113281 7.128906 114.835938 0.769531 113.855469 C 0.257812 118.523438 0 123.242188 0 128 C 0 132.234375 0.203125 136.4375 0.609375 140.609375 C 21.375 143.734375 67.125 149.328125 128 149.328125 C 188.875 149.328125 234.625 143.734375 255.390625 140.609375 Z M 255.390625 140.609375 "/>
<path style=" stroke:none;fill-rule:nonzero;fill:rgb(90.196078%,91.372549%,92.941176%);fill-opacity:1;" d="M 154.671875 133.332031 C 154.671875 148.0625 142.726562 160 128 160 C 113.273438 160 101.332031 148.0625 101.332031 133.332031 C 101.332031 118.605469 113.273438 106.667969 128 106.667969 C 142.726562 106.667969 154.671875 118.605469 154.671875 133.332031 Z M 154.671875 133.332031 "/>
<path style=" stroke:none;fill-rule:nonzero;fill:rgb(26.27451%,29.019608%,32.941176%);fill-opacity:1;" d="M 128 85.332031 C 101.53125 85.332031 80 106.867188 80 133.332031 C 80 159.796875 101.53125 181.328125 128 181.328125 C 154.46875 181.328125 176 159.796875 176 133.332031 C 176 106.867188 154.46875 85.332031 128 85.332031 Z M 128 154.671875 C 116.238281 154.671875 106.667969 145.09375 106.667969 133.332031 C 106.667969 121.570312 116.238281 112 128 112 C 139.765625 112 149.328125 121.570312 149.328125 133.332031 C 149.328125 145.09375 139.765625 154.671875 128 154.671875 Z M 128 154.671875 "/>
<use xlink:href="#surface5" mask="url(#mask0)"/>
<use xlink:href="#surface8" mask="url(#mask1)"/>
</g>
</svg>
